<!DOCTYPE svg PUBLIC "-//W3C//DTD SVG 1.1//EN" "http://www.w3.org/Graphics/SVG/1.1/DTD/svg11.dtd">
<!-- Uploaded to: SVG Repo, www.svgrepo.com, Transformed by: SVG Repo Mixer Tools -->
<svg fill="#0bb116" height="800px" width="800px" version="1.1" id="Layer_1" xmlns="http://www.w3.org/2000/svg" xmlns:xlink="http://www.w3.org/1999/xlink" viewBox="0 0 512 512" xml:space="preserve" stroke="#0bb116">
<g id="SVGRepo_bgCarrier" stroke-width="0"/>
<g id="SVGRepo_tracerCarrier" stroke-linecap="round" stroke-linejoin="round"/>
<g id="SVGRepo_iconCarrier"> <g> <g> <path d="M256,0C114.615,0,0,114.615,0,256s114.615,256,256,256s256-114.615,256-256S397.385,0,256,0z M256,46.545 c36.906,0,72.352,9.486,103.562,27.297l-50.866,70.021H201.087l-51.292-68.482C181.641,56.584,218.047,46.545,256,46.545z M46.545,256c0-55.948,21.786-108.546,61.347-148.106c1.544-1.544,3.114-3.052,4.698-4.541l52.356,69.902l-31.921,98.239 l-82.238,26.728C47.988,284.477,46.545,270.348,46.545,256z M107.892,404.104c-18.109-18.109-32.483-38.958-42.76-61.604 l82.223-26.722l85.378,62.03l0.005,86.36C185.589,458.992,141.917,438.129,107.892,404.104z M178.84,281.119l29.474-90.711h95.375 l29.471,90.711L256,337.178L178.84,281.119z M404.106,404.106c-34.019,34.018-77.681,54.879-124.821,60.061l-0.005-86.368 l85.366-62.02l82.221,26.719C436.592,365.146,422.218,385.994,404.106,404.106z M378.975,271.492l-32.594-100.31l50.787-69.911 c2.354,2.15,4.669,4.354,6.938,6.623c39.561,39.561,61.348,92.158,61.348,148.106c0,14.348-1.443,28.473-4.24,42.218 L378.975,271.492z"/> </g> </g> </g>
</svg>